# xmcd
#
# Track frame offsets:
#  150
#  13678
#  28351
#  44011
#  55163
#  72677
#  83945
#  97710
#  116502
#  131158
#  144116
#  157931
#  176164
#  191989
#
# Disc length: 2787 seconds
#
# Revision: 0
# Processed by: cddbd v1.5.2PL0 Copyright (c) Steve Scherf et al.
# Submitted via: Collectorz.com_Music_Collector 6.11
#
DISCID=c80ae10e
DTITLE=Billy Yates - Bill's Barber Shop
DYEAR=2010
DGENRE=
TTITLE0=Famous For Bein' Your Fool
TTITLE1=Tell Me I'm Wrong
TTITLE2=Margarita Meltdown
TTITLE3=Bill's Barber Shop
TTITLE4=I'd Do It For You (with Nicole Broussard)
TTITLE5=The Alphabet Song
TTITLE6=It Goes Without Sayin'
TTITLE7=Already Gone
TTITLE8=Fishin' Around
TTITLE9=Get Ready, Get Set, She's Gone
TTITLE10=Wayward Ways
TTITLE11=I Just Can't See It
TTITLE12=One Beer A Day
TTITLE13=This Pain Inside Of Me
EXTD=
EXTT0=
EXTT1=
EXTT2=
EXTT3=
EXTT4=
EXTT5=
EXTT6=
EXTT7=
EXTT8=
EXTT9=
EXTT10=
EXTT11=
EXTT12=
EXTT13=
PLAYORDER=
